<svg width="60" height="60" viewBox="0 0 60 60" fill="none" xmlns="http://www.w3.org/2000/svg">
<rect width="60" height="60" rx="5" fill="#B7A088"/>
<path d="M30.5 14C30.3595 14 30.2196 14.0447 30.1001 14.133L15.2462 25.4808C14.9685 25.6952 14.9169 26.0912 15.1365 26.3686C15.3561 26.6397 15.7618 26.6901 16.0459 26.4757L16.9377 25.796V42.3696C16.9377 42.7163 17.2284 43 17.5836 43H43.4164C43.7716 43 44.0623 42.7163 44.0623 42.3696V25.796L44.9541 26.4757C45.0768 26.564 45.2118 26.6087 45.3539 26.6087C45.5477 26.6087 45.7343 26.5262 45.8635 26.3686C46.0831 26.0912 46.0315 25.6952 45.7538 25.4808L30.8999 14.133C30.7804 14.0447 30.6405 14 30.5 14ZM30.4987 23.4565C30.7474 23.4549 30.9936 23.5158 31.2165 23.6388C40.794 29.2875 40.8073 29.4456 40.8332 29.868C40.8525 30.2021 40.859 30.4035 38.2499 32.3516V31.204C38.2499 31.0653 38.2172 30.9396 38.159 30.8198C37.4228 29.2626 32.1921 29.1304 30.5 29.1304C28.8079 29.1304 23.5772 29.2626 22.841 30.8198C22.8022 30.9018 22.7757 30.984 22.7627 31.0722H22.7501V31.204V34.3438C22.9439 34.4573 23.1056 34.6152 23.2219 34.8043C23.3317 34.9872 23.396 35.2078 23.396 35.4348C23.396 35.8067 23.2282 36.1472 22.957 36.3804C23.2282 36.6011 23.396 36.9357 23.396 37.3076C23.396 38.2344 22.1043 39.8478 22.1043 39.8478C22.1043 39.8478 20.8127 38.2091 20.8127 37.3076C20.8127 36.9357 20.9804 36.6011 21.2516 36.3804C20.9804 36.1472 20.8127 35.8067 20.8127 35.4348C20.8127 34.9683 21.071 34.5645 21.4585 34.3438V31.369C20.141 30.3161 20.1539 30.1328 20.1668 29.868C20.1927 29.4456 20.205 29.2884 29.7697 23.6523C29.9989 23.5231 30.2501 23.4581 30.4987 23.4565ZM30.5 30.3913C34.2974 30.3913 36.532 30.9781 36.9582 31.3185V34.1739C36.9582 35.9265 32.0177 36.0652 30.5 36.0652C28.9823 36.0652 24.0418 35.9265 24.0418 34.1739V31.3185C24.468 30.9781 26.7026 30.3913 30.5 30.3913ZM30.5 33.5435C27.949 33.5435 26.2575 33.8965 25.5794 34.1739C26.2575 34.4513 27.949 34.8043 30.5 34.8043C33.051 34.8043 34.7425 34.4513 35.4206 34.1739C34.7425 33.8965 33.051 33.5435 30.5 33.5435Z" fill="white"/>
</svg>
