<svg width="20" height="20" viewBox="0 0 20 20" fill="none" xmlns="http://www.w3.org/2000/svg">
<path d="M10 1C5.03748 1 1 5.03709 1 10C1 14.9629 5.03748 19 10 19C14.9629 19 19 14.9629 19 10C19 5.03709 14.9629 1 10 1ZM12.7391 6.47826H11.4517C10.6934 6.47826 10.3913 6.6563 10.3913 7.18496V8.43478H12.7391L12.3478 10.3913H10.3913V15.4783H8.04348V10.3913H6.86957V8.43478H8.04348V7.3493C8.04348 5.69604 8.70322 4.52174 10.6187 4.52174C11.6447 4.52174 12.7391 4.91304 12.7391 4.91304V6.47826Z" fill="#969696"/>
</svg>
