<svg width="17" height="18" viewBox="0 0 17 18" fill="none" xmlns="http://www.w3.org/2000/svg">
<path d="M3.91659 0C2.83647 0 1.9583 0.877378 1.9583 1.95652C1.9583 3.03567 2.83647 3.91304 3.91659 3.91304C4.99672 3.91304 5.87489 3.03567 5.87489 1.95652C5.87489 0.877378 4.99672 0 3.91659 0ZM12.1414 0C11.0613 0 10.1831 0.877378 10.1831 1.95652C10.1831 3.03567 11.0613 3.91304 12.1414 3.91304C13.2216 3.91304 14.0997 3.03567 14.0997 1.95652C14.0997 0.877378 13.2216 0 12.1414 0ZM2.15413 4.30435C0.963849 4.30435 0 5.26732 0 6.45652V11.7024C0 12.0922 0.263146 12.4468 0.648686 12.5095C1.13979 12.589 1.56664 12.2145 1.56664 11.7391V7.82609H1.9583V17.0217C1.9583 17.5628 2.39585 18 2.93744 18C3.47904 18 3.91659 17.5628 3.91659 17.0217V12.1304H4.30825V17.0217C4.30825 17.5628 4.74581 18 5.2874 18C5.82899 18 6.26655 17.5628 6.26655 17.0217V14.4049C6.39047 14.4492 6.52052 14.4783 6.65821 14.4783V17.0217C6.65821 17.5567 7.10188 18 7.63736 18H8.81233C9.34781 18 9.79148 17.5567 9.79148 17.0217V14.4783C10.0913 14.4783 10.3667 14.3606 10.5748 14.1726V17.2174C10.5748 17.65 10.9252 18 11.3581 18C11.7911 18 12.1414 17.65 12.1414 17.2174V14.087H10.6605C10.7615 13.9738 10.841 13.8409 10.893 13.6957H14.7851C15.3175 13.6957 15.697 13.1744 15.5317 12.6685L13.9651 7.875L14.3445 7.75272L15.6174 11.6535C15.7123 11.9409 15.9754 12.1427 16.2783 12.1427H16.3028C16.7802 12.1427 17.1137 11.678 16.9637 11.2255C16.3808 9.46315 15.1523 5.74728 15.1523 5.74728C14.9259 5.04874 14.3308 4.30435 13.3164 4.30435H10.9665C10.4493 4.30435 9.98731 4.50153 9.62013 4.8913L9.21623 5.36821C8.92402 5.19395 8.58897 5.08696 8.22484 5.08696C7.9158 5.08696 7.62818 5.16644 7.36809 5.29484C7.28089 5.08084 7.14931 4.86838 6.96419 4.73234L6.91523 4.69565C6.55417 4.44192 6.11968 4.30435 5.67906 4.30435H2.15413ZM8.22484 5.86957C8.87812 5.86957 9.39982 6.39079 9.39982 7.04348C9.39982 7.69616 8.87812 8.21739 8.22484 8.21739C7.57157 8.21739 7.04987 7.69616 7.04987 7.04348C7.04987 6.39079 7.57157 5.86957 8.22484 5.86957ZM7.04987 9.3913H9.39982C9.83738 9.3913 10.1831 9.73675 10.1831 10.1739V13.3043C10.1831 13.526 10.0133 13.6957 9.79148 13.6957H9.39982C9.1841 13.6957 9.00816 13.8714 9.00816 14.087V17.0217C9.00816 17.1333 8.92402 17.2174 8.81233 17.2174H7.63736C7.52567 17.2174 7.44153 17.1333 7.44153 17.0217V14.087C7.44153 13.8714 7.26559 13.6957 7.04987 13.6957H6.65821C6.43637 13.6957 6.26655 13.526 6.26655 13.3043V10.1739C6.26655 9.73675 6.61231 9.3913 7.04987 9.3913ZM12.5331 14.087V17.2174C12.5331 17.65 12.8834 18 13.3164 18C13.7494 18 14.0997 17.65 14.0997 17.2174V14.087H12.5331Z" fill="black"/>
</svg>
