<svg width="15" height="18" viewBox="0 0 15 18" fill="none" xmlns="http://www.w3.org/2000/svg">
<path d="M0 0V18H15V4.92799L9.7526 0H0ZM9.58333 0.941576L13.9974 5.08696H9.58333V0.941576ZM2.91667 3.13043H8.33333V3.91304H2.91667V3.13043ZM2.91667 4.69565H8.33333V5.47826H2.91667V4.69565ZM2.91667 6.26087H12.5V7.04348H2.91667V6.26087ZM2.91667 7.82609H12.5V8.6087H2.91667V7.82609ZM2.91667 9.3913H12.5V10.1739H2.91667V9.3913ZM5.48177 11.1766C6.19792 11.1766 6.65365 11.6398 6.65365 12.3628C6.65365 13.1607 6.28255 13.8684 5.84635 14.4171C6.80339 14.3453 7.2168 13.6712 7.5 13.2188C7.67253 12.9421 7.82552 12.7052 8.13802 12.7052C8.55306 12.7052 8.68978 13.1133 8.84115 13.5367C8.84603 13.5474 8.84928 13.5611 8.85417 13.5734C8.92741 13.5199 9.01042 13.4511 9.07552 13.4022C9.4873 13.0919 10.0016 12.7052 10.625 12.7052C10.8561 12.7052 11.0417 12.8794 11.0417 13.0965C11.0417 13.3135 10.8561 13.4878 10.625 13.4878C10.2946 13.4878 9.9235 13.7675 9.59635 14.0136C9.27083 14.2582 8.99414 14.4783 8.67188 14.4783C8.32357 14.4783 8.19824 14.1878 8.07292 13.8424C7.70671 14.3927 7.02311 15.212 5.66406 15.212C5.48665 15.212 5.33366 15.1799 5.18229 15.1264C4.87467 15.4061 4.62402 15.5712 4.59635 15.591C4.52311 15.6415 4.44661 15.6644 4.36198 15.6644C4.2334 15.6644 4.10482 15.6109 4.02344 15.5054C3.88835 15.3312 3.92904 15.082 4.11458 14.9552C4.11947 14.9521 4.27083 14.8405 4.49219 14.6495C4.12923 14.2306 3.94531 13.6483 3.94531 13.1698C3.94531 12.0876 4.65006 11.1766 5.48177 11.1766ZM5.48177 11.9592C5.20671 11.9592 4.77865 12.4774 4.77865 13.1698C4.77865 13.448 4.88932 13.7996 5.07812 14.0625C5.46712 13.6039 5.82031 13.0109 5.82031 12.3628C5.82031 11.9562 5.60221 11.9592 5.48177 11.9592Z" fill="black"/>
</svg>
