<svg width="60" height="60" viewBox="0 0 60 60" fill="none" xmlns="http://www.w3.org/2000/svg">
<rect width="60" height="60" rx="5" fill="#B7A088"/>
<path d="M30.5315 15C30.432 15 30.3319 15.0234 30.2402 15.0717L16.9724 22.1603C16.7639 22.2763 16.6318 22.4958 16.6318 22.7343V24.0231H44.4311V22.7343C44.4311 22.4958 44.299 22.2763 44.0905 22.1603L30.8227 15.0717C30.7311 15.0234 30.631 15 30.5315 15ZM17.8954 25.3119V26.2144C17.8954 27.0199 18.4261 27.6767 19.159 27.8443V38.2003H24.2134V27.8443C24.9463 27.6767 25.477 27.0199 25.477 26.2144V25.3119H17.8954ZM26.7406 25.3119V26.2144C26.7406 27.0199 27.2714 27.6767 28.0043 27.8443V38.2003H33.0587V27.8443C33.7916 27.6767 34.3223 27.0199 34.3223 26.2144V25.3119H26.7406ZM35.5859 25.3119V26.2144C35.5859 27.0199 36.1166 27.6767 36.8495 27.8443V38.2003H41.9039V27.8443C42.6368 27.6767 43.1675 27.0199 43.1675 26.2144V25.3119H35.5859ZM17.2636 39.4891C16.9856 39.4891 16.6765 39.5917 16.4553 39.7786C16.1647 40.0299 16 40.4037 16 40.7968V42.5689C16 43.368 16.581 44 17.3265 44H43.6735C44.4064 44 45 43.3884 45 42.6344V40.8622C45 40.1083 44.4064 39.4954 43.6735 39.4954C43.6735 39.4954 17.3142 39.4891 17.2636 39.4891Z" fill="white"/>
</svg>
