<svg width="60" height="60" viewBox="0 0 60 60" fill="none" xmlns="http://www.w3.org/2000/svg">
<rect width="60" height="60" rx="5" fill="#B7A088"/>
<path d="M31.22 17C25.545 17 23.4375 21.3273 25.06 24.9934C24.8575 25.1266 24.5325 25.5436 24.6 26.2763C24.735 27.6086 25.3425 27.9268 25.68 27.9934C25.815 29.259 26.6275 30.7344 27.1 30.9342C27.1 31.8002 27.0875 32.5255 27.02 33.4605C25.985 36.1423 19.37 35.5206 18.52 40.3289C18.4825 40.5387 18.7025 41 19.14 41H40.88C41.53 41 41.5175 40.5263 41.48 40.3092C40.615 35.5206 34.015 36.1398 32.98 33.4605C32.9125 32.4589 32.9 31.8002 32.9 30.9342C33.3725 30.7344 34.125 29.1924 34.26 27.9934C34.5975 27.9934 35.1375 27.5913 35.34 26.2566C35.4075 25.5238 35.13 25.06 34.86 24.9934C35.94 23.6612 35.745 18.2039 31.76 18.2039L31.22 17ZM23.7 20.1579C19.4275 20.2294 17.555 23.5847 18.84 26.4539C18.7025 26.5206 18.4325 26.8734 18.5 27.4803C18.6375 28.5609 19.045 28.8224 19.32 28.8224C19.455 29.8339 20.06 30.9688 20.4 31.1711C20.4 31.8446 20.4075 31.8248 20.34 32.6316C19.785 34.3586 14 34.2303 14 38.4737C14 38.4737 14 39.1053 14.64 39.1053H17.54C18.5175 36.3766 21.175 35.3257 23.18 34.5461C24.285 34.1168 25.4175 33.6826 25.76 33.1447C25.7975 32.5576 25.8175 32.0592 25.82 31.5066C25.2125 30.8207 24.76 29.7525 24.54 28.8421C24.02 28.4622 23.4575 27.7319 23.32 26.375C23.26 25.7311 23.3975 25.1957 23.62 24.7763C23.1125 23.2196 23.145 21.5938 23.7 20.1579ZM38.32 20.1579C37.7075 20.1579 36.985 20.2072 36.3 20.3158C36.8125 21.7985 36.8325 23.5699 36.38 24.8355C36.58 25.2697 36.6725 25.7977 36.62 26.375L36.6 26.4145V26.4539C36.41 27.6949 35.9475 28.4498 35.4 28.8618C35.1925 29.7155 34.77 30.7936 34.18 31.4868C34.1825 32.0296 34.2025 32.5181 34.24 33.1447C34.5825 33.6826 35.7175 34.1168 36.82 34.5461C38.8225 35.3232 41.48 36.3766 42.46 39.1053H45.36C46 39.1053 46 38.4934 46 38.4934C46.0025 33.6086 40.5225 34.7656 39.7 32.5329C39.63 31.7878 39.62 31.8569 39.62 31.1118C39.9625 30.9095 40.5925 29.7722 40.66 28.8224C40.935 28.8224 41.3425 28.5436 41.48 27.4605C41.5475 26.9202 41.345 26.5206 41.14 26.4539C41.965 25.3709 41.83 21.1053 38.74 21.1053L38.32 20.1579Z" fill="white"/>
</svg>