<svg width="51" height="43" viewBox="0 0 51 43" fill="none" xmlns="http://www.w3.org/2000/svg">
<path d="M38.4223 7.74V8.6H39.6284C41.0068 8.6 42.2128 8.944 42.7297 9.632C43.2466 10.32 43.5912 11.696 43.5912 13.76V36.292L43.0743 35.776L41.0068 31.648L40.6622 29.068C40.6622 29.068 40.1453 23.908 37.7331 21.328C37.7331 22.876 37.2162 23.564 37.2162 23.564C37.2162 21.844 35.3209 17.544 32.7365 15.308C33.2534 16.684 33.2534 19.092 33.2534 19.092C33.2534 19.092 31.5304 14.448 28.0845 11.524C28.6014 12.9 28.2568 14.276 28.2568 14.276C28.2568 14.276 26.1892 8.084 18.2635 5.504C19.125 6.536 18.9527 7.568 18.9527 7.568C18.9527 7.568 12.2331 0.344 0 0C5.51351 3.784 14.3007 12.728 14.3007 12.728L12.2331 12.556C12.2331 12.556 16.0236 15.652 17.9189 16.684C16.8851 16.512 16.3682 16.684 16.3682 16.684C16.3682 16.684 17.0574 17.372 18.2635 18.404V36.464C18.2635 38.356 18.0912 39.732 17.7466 40.248C17.0574 41.108 16.0236 41.624 14.473 41.624H13.0946V42.484H25.8446V41.624H24.4662C23.0878 41.624 22.0541 41.28 21.3649 40.592C20.848 40.076 20.6757 38.7 20.6757 36.636V20.64C24.6385 24.08 30.152 29.24 35.3209 31.476C36.0101 31.82 36.527 31.992 37.2162 32.164C36.0101 28.896 22.9155 14.62 22.9155 14.62C25.8446 16.168 38.7669 30.616 45.8311 43V13.76C45.8311 11.868 46.0034 10.492 46.348 9.976C47.0372 9.116 48.0709 8.6 49.6216 8.6H51V7.74H38.4223Z" fill="#B59F88"/>
</svg>
