<svg width="430" height="307" viewBox="0 0 430 307" fill="none" xmlns="http://www.w3.org/2000/svg">
<path d="M428.845 256.776L427.227 255.275L424.455 251.581L423.53 250.657L418.563 247.771L416.945 246.27L415.674 244.307L415.097 241.882L415.328 240.497L415.905 239.458L416.714 238.534L417.407 237.495L417.638 236.918L417.754 236.34L417.869 235.763L418.216 235.07L419.14 233.916L419.487 233.223L419.718 232.53L419.487 231.26L418.794 230.568L416.021 229.067L415.674 228.72L415.443 228.143L415.328 227.219L415.559 226.873L415.905 226.642L416.83 225.141L416.945 224.679L416.483 224.217L415.905 223.871L415.674 223.525V223.063L415.559 221.215L415.79 216.828L415.097 214.865L411.169 212.672L410.129 210.709L409.089 202.742V196.046L409.32 194.776L409.898 193.621L412.208 190.966L412.902 189.811L413.248 188.541V187.156L412.902 185.193L412.786 184.5L412.671 183.923L412.324 183.461L411.4 182.884L411.053 182.537L410.591 181.729L409.667 180.575L408.743 179.882L407.703 179.651L406.432 179.766L405.161 179.536L404.237 178.727L403.428 177.804L402.388 176.995L393.031 173.416L385.175 169.606L384.019 169.491L380.207 170.876H378.936L377.896 170.761L374.546 169.606H373.622L372.813 170.184L372.004 171.338L371.889 171.915V172.493L371.773 173.07L371.427 173.532L369.232 174.225L368.77 174.571V175.956L369.463 177.111L369.925 178.15L369.232 179.305L368.307 179.536L362.993 179.305L362.184 178.727L360.567 177.226L359.643 176.649L357.679 175.841L356.754 175.264L355.715 174.109L355.253 172.954L354.675 170.068L354.328 169.029L352.364 165.681L352.133 164.642L352.48 161.524L352.249 160.139L351.671 159.215L350.054 157.368L349.361 156.329L349.245 155.059L349.707 153.789L350.516 152.634L351.325 151.826L352.595 151.249H355.253L356.408 150.902L357.217 149.979L357.448 148.939L357.332 147.785L356.754 146.63L355.946 146.053L354.097 144.09L350.862 141.55L350.285 140.627L349.938 139.472L349.476 137.047L349.014 136.008L346.703 133.699L345.433 131.39L345.086 129.427L345.548 127.349L347.281 122.384L347.397 121.23L347.281 119.729L346.703 115.688V114.302L345.086 113.494L340.003 112.917L338.039 113.148L332.031 114.649L330.645 115.572L330.183 116.727L330.067 117.766L329.721 118.459L326.601 119.036L321.056 120.999L319.323 121.114L317.359 120.537L316.435 120.075L315.742 119.844L315.048 119.96L312.391 121.345L311.582 121.461L310.658 121.114L307.192 120.422L306.037 120.306L303.611 120.768H302.802L292.636 118.112H291.711L290.787 118.343L290.21 118.805L289.17 120.191L288.592 120.537H287.668L286.282 119.613L285.473 119.382L284.895 119.613L283.162 121.461L282.238 121.576H281.314L279.465 121.114H278.541L276.462 122.153L275.306 122.269L274.267 122.615L273.573 123.654L272.303 127.464L269.992 132.429H269.414L268.837 131.621L268.375 130.466L268.259 129.774V129.196L268.028 128.734L266.873 128.157L266.064 127.464L265.602 127.118L263.176 126.772L262.02 126.31L261.558 125.271L261.443 123.77L261.096 121.923L260.519 120.422L259.594 119.613L258.555 119.729L256.591 120.768L254.511 121.23L253.587 121.692L248.157 125.502L246.193 126.31L244.229 126.541L243.189 126.194L242.149 125.386L241.341 124.232L240.879 122.846L240.994 121.345L241.572 120.422L242.265 119.729L242.958 118.69L243.189 117.304L243.074 115.457L242.611 113.841L241.687 113.032H240.647L234.987 114.187L232.329 114.071L230.019 113.032L228.864 110.608L229.326 109.453L230.712 107.375L231.059 106.336L230.712 105.181L229.903 104.142L228.864 103.334L227.015 102.179L225.975 102.295L224.127 103.218L222.509 103.565L221.932 103.796L221.585 104.027L220.776 104.835L220.43 105.181L218.466 106.22L217.657 106.798L215.924 108.76L215.347 109.222H214.653L211.534 108.645L209.224 108.76L206.913 109.338L205.064 110.492L203.909 112.455L203.1 114.764L202.061 116.727L200.328 117.651L198.826 117.189L197.44 116.265L196.284 115.688L195.244 116.15L194.551 116.958L194.089 117.073L193.627 116.958H192.818L192.125 117.189L190.392 118.112L188.89 118.343L187.273 117.997L185.771 117.189L184.962 115.688V114.764L185.193 113.841L185.309 112.801L184.962 111.878L184.385 111.416L183.114 110.839L182.536 110.377L181.497 106.913L180.688 105.412L179.301 104.373L178.377 104.258L176.298 104.604L175.373 104.489L174.68 104.027L173.409 102.988L172.601 102.641L171.677 102.757L169.944 103.449L169.019 103.68L168.442 103.911L168.095 104.258L167.864 104.604L167.517 104.835H166.94L165.785 104.489H165.207L164.514 104.719L159.546 108.299L158.622 108.53L157.697 108.183L157.582 107.144L158.16 104.604V103.449L157.929 102.064L157.351 101.371L156.542 102.064L155.04 105.412L154.578 106.105L153.654 106.451L152.73 106.105L150.881 105.066L149.726 104.835H148.571L147.415 105.181L146.491 105.989L145.682 107.259L145.22 107.606L143.603 106.913L141.292 106.682L137.018 107.606L134.823 106.913L132.512 105.643L130.317 104.95L128.006 104.719L123.154 105.066L122.23 105.412L120.382 107.029L119.457 107.606L118.418 107.952L117.378 108.068H116.107L113.681 108.414L112.526 108.068L111.139 106.682L110.793 106.451L110.215 106.682L109.984 107.144L109.868 107.721L109.522 108.299L107.327 109.222L106.518 107.49L106.749 98.9466L106.518 97.5611L106.056 96.4065L105.247 95.4829L104.323 94.6747L103.514 93.751L103.168 92.481L103.399 89.71L103.976 86.9391L106.518 79.3189L107.558 77.0098L107.789 76.317V75.8552L108.02 75.7398L108.829 75.8552L110.446 77.7025L113.103 82.2053L118.418 80.358L118.302 79.4344L117.031 77.1252V76.6634V76.2016L116.916 75.7398L116.685 75.2779L116.222 72.9688L116.569 71.1215L117.493 69.5051L118.649 67.8887L118.764 67.4268L118.995 66.1568L119.226 65.8105L119.688 65.9259L120.266 67.0805L120.613 67.4268L121.537 67.5423L122.461 67.4268L144.181 59.6912L146.145 59.9221L154.001 65.1177L155.156 65.4641L157.929 65.3486L159.199 65.4641L160.47 66.0414L161.279 66.965L161.972 68.0041L162.896 68.9278L163.936 69.5051L165.9 69.736L167.98 70.6596L172.37 71.3524L173.756 71.8142L175.027 72.7379L175.605 74.0079L174.796 75.6243L173.872 76.2016L172.947 76.6634L172.139 77.2407L171.445 78.2798L170.983 79.6653L170.868 80.9353L171.33 81.859L172.485 82.3208L172.947 81.7435L173.409 80.1271L173.756 79.4344L174.449 79.088L176.76 78.9725L177.915 78.5107L179.07 77.818L179.995 76.7789L180.688 75.5088L181.15 72.9688L181.034 70.7751L181.265 68.9278L182.767 67.5423L186.233 66.3877L186.926 65.9259L189.121 64.0786L189.468 63.6168L189.699 63.5013H190.046L190.277 63.6168L190.508 63.7322V63.8477L191.548 63.2704L191.894 62.924L192.587 62.6931L195.476 63.3859L197.209 62.8086L199.057 61.4231L199.981 59.6912L198.826 57.9594L197.671 57.8439L192.818 58.3058L184.962 60.7304L182.652 60.9613L180.341 60.8458L178.146 59.2294L177.106 56.2275L176.413 52.8793L174.911 50.4547L173.641 49.8774L172.601 49.9929L171.561 50.3392L170.406 50.4547L169.25 50.1083L166.478 48.8383L167.286 46.2982L167.171 45.9519L166.709 45.3746L166.593 45.2591L165.9 44.22L165.785 43.9891L165.669 43.6427L165.553 42.1418L166.478 40.7563L168.095 39.7172L171.908 38.7935L172.485 38.5626L173.063 37.8699L174.334 35.5607L175.027 34.868L175.836 34.5216L176.644 34.2907L177.453 33.9443L178.146 33.367L180.11 30.9425L183.46 28.1715L184.269 27.4788L185.078 26.9015L185.54 26.6706L186.464 26.4396L186.695 26.2087L186.811 25.8623L187.042 25.516L187.851 24.9387L187.966 24.3614L188.428 21.9368L186.349 20.6668L181.265 19.5122L180.457 18.3576L180.341 17.0876L180.803 16.164L181.959 16.0485L183.923 17.6649L184.962 18.1267L185.078 16.7413L184.616 16.164L174.565 4.84919L172.832 3.34824L172.601 3.11733L172.485 2.88642L170.752 1.03911L168.326 0L166.247 0.577285L164.745 8.19745L161.741 11.7766L157.697 14.2012L151.921 16.5103L146.722 20.5513L136.556 23.7841L135.285 24.3614L134.245 25.2851L131.934 28.1715L130.664 29.3261L129.162 29.7879L127.429 29.2106L126.736 28.6333L126.158 27.8251L125.118 26.0933L124.541 25.4005L123.154 24.4769L122.461 23.8996L120.266 20.5513L118.995 19.3968L117.262 19.2813L116.338 18.704L115.645 18.0113L114.952 17.434L113.912 17.3185L112.179 17.8958L111.255 18.3576L110.446 19.0504L109.06 20.8977L108.251 22.745L107.904 24.9387V27.5942L108.251 31.4043L108.02 32.3279L107.211 32.7898L103.861 33.0207L101.897 34.4062V35.9071L104.092 39.6017L105.247 43.6427L105.825 44.9127L107.211 47.4528L107.789 48.8383L108.135 50.4547L107.673 54.0339L105.94 54.3802L103.861 53.572L102.359 53.8029L102.59 55.8812L106.634 59.4603V61.1922L104.554 62.1158L101.781 62.0004L96.8135 60.4994L93.1166 58.6521L91.8458 58.4212L82.8345 59.8067L81.7947 60.2685L79.8307 61.4231L78.5599 61.5386L75.3251 60.9613L74.0543 61.0767L68.7399 62.4622L67.5846 63.2704L68.971 64.8868L71.3971 66.3877L73.3611 67.0805L86.7625 64.425L89.3041 66.2723L89.6507 67.3114L89.8818 68.3505L89.7663 69.3896L89.3041 70.3133L88.0333 70.5442L83.9898 69.9669L82.8345 70.3133L80.8705 72.0451L80.1773 72.2761L78.9065 69.9669L78.0978 69.2742L77.4046 70.5442L77.5202 71.2369L78.5599 72.0451L78.791 72.6224L78.6755 74.1234L78.791 74.8161L79.022 75.5088L83.8743 82.2053L84.1053 83.8217L81.7947 84.8608L80.5239 82.8981L79.7152 79.7808L78.5599 77.3561L77.4046 76.548L77.0581 77.1252L77.2891 78.5107L77.8667 80.0117L79.1376 82.6672V83.7063L78.4444 85.0918L78.2133 85.2072L77.6357 85.3227L77.4046 85.4381L77.0581 86.4772V86.5927V86.9391L76.9425 87.6318L76.5959 88.0937L75.9028 87.7473L74.4009 85.3227L73.4766 84.6299L71.6282 86.2463L70.935 85.9H70.2418L69.6641 87.4009L69.0865 98.9466L68.7399 100.678L68.0467 102.064L66.7759 103.449L64.4653 104.95L63.7722 105.989L64.3498 107.375L63.31 107.837L59.9597 108.76L57.187 108.991L54.5298 108.76L50.0242 107.144L41.8216 106.913L22.9903 102.064H20.4487L18.3692 102.757L13.2859 106.451L8.89575 107.144L7.856 108.183L8.20259 111.3L7.97151 111.531L7.74046 111.762L7.5094 111.878H7.27835L5.892 111.647L5.08328 111.762L4.62117 112.455L3.92799 115.226L3.58141 118.112V120.768L2.88823 123.193L2.42612 125.502L2.07953 125.617L1.6174 125.502L1.03976 125.733L0.46211 126.194L0.231055 126.541L0.115536 127.003L0 128.042L0.46211 130.813L1.96399 132.198L8.6647 134.623L13.1703 134.738L15.3654 135.662L15.5965 135.893L16.0586 136.701L16.4052 137.047L16.7517 137.163L17.676 136.932L18.0226 137.047L18.4847 137.856L18.6002 138.779L17.3294 144.321L17.5604 146.053L18.6002 147.092L25.6475 148.247H27.1494L31.3084 146.861L32.0016 146.515L32.8103 146.284H33.619L34.5433 146.63L35.0054 146.861L35.8141 147.669L36.7383 147.9L37.6626 147.554L38.5868 146.861L39.0489 146.746H39.511H39.9731L40.4352 146.861L41.244 147.9L43.0924 152.057L44.7098 154.366L45.2875 155.751L45.172 157.252L44.7098 158.407L44.0167 159.331L43.2079 160.023L42.2837 160.601L41.0129 160.831H40.0887L39.511 161.178L39.28 162.679L39.511 163.372L39.8576 163.949L40.0887 164.642V165.45L39.8576 165.912L38.4712 166.951L38.0091 167.99L38.1247 169.26L38.8178 171.915L38.9334 173.301L38.7023 177.342L38.8178 178.843L39.28 179.766L40.6663 181.845L41.0129 182.884L41.1284 185.077L41.3595 186.117L41.9371 187.04L44.1322 189.118L46.2117 192.813L47.1359 193.737L50.0242 195.353L54.4143 199.279L55.8006 201.357L56.0317 204.128L55.1075 208.169L53.7211 212.094L51.5261 215.327L50.8329 216.713L50.3708 217.867L50.1397 218.906L49.6776 219.83L48.8689 220.407L48.0602 220.638L45.5185 220.985L43.7856 221.562L42.8614 222.601L40.5508 229.644L38.9334 232.877L34.8899 238.419L31.8861 241.305L28.9979 244.884L26.6873 248.925L25.1854 253.197L24.9543 256.083L25.9941 261.51L26.2251 264.396L25.9941 266.936L25.4164 269.246L24.3767 271.324L24.1456 272.363L23.6835 276.75L23.799 277.789L24.4922 278.713L25.763 279.637L27.1494 280.329L29.691 280.907L30.4997 281.715L31.0774 282.985L32.0016 284.37L32.5793 284.948L33.8501 285.64L34.3122 286.102L36.1607 288.411L36.5073 288.989L36.7383 289.566L36.9694 290.143L37.4315 290.49H38.1247L38.8178 290.143L39.3955 289.797L43.0924 286.68L43.7856 286.218L44.8253 285.756L45.7496 284.832L46.7894 284.024L48.1757 283.793L50.4863 284.486H51.7571L52.3348 283.447L51.9882 280.56V279.175L52.4503 278.02L53.49 277.328L54.5298 277.443L55.5696 277.905L56.6094 278.136L57.9957 278.02L59.0355 277.443L59.382 276.404L58.5734 274.788L62.0392 274.557L64.6964 273.979H65.274L65.7362 273.633L66.5449 272.363L66.7759 272.017L67.9312 271.901L70.0108 271.324L71.0505 271.208L71.2816 270.747L71.6282 269.592L72.3213 268.553L73.5922 268.322L73.2456 267.514L73.13 267.167L72.899 266.936L73.4766 266.244H74.5164L76.7114 266.59L77.8667 266.475L78.5599 266.59L79.2531 266.936L81.3326 268.206L82.0258 268.322L82.2569 267.629L82.1413 266.128L81.4482 264.05L81.6792 263.242L82.95 262.78L84.1053 263.126L84.683 264.05L85.1451 265.089L85.8382 266.128L86.647 266.475L87.2246 266.359L87.5712 265.782L87.3401 264.858L87.1091 264.512L86.1849 263.819L85.8382 263.357L85.6072 262.549L85.7227 262.318L86.0693 262.434L86.3004 262.549L90.1128 263.011L91.1526 263.588L92.3079 264.627L93.1166 265.782L93.9253 268.322L95.0806 269.361L96.3514 270.169L97.3912 270.977L98.3154 273.402L98.7775 273.979L100.048 274.788L100.395 274.903L105.594 278.367L106.749 278.251L107.789 277.674L109.291 277.328L109.984 277.097L110.562 276.519L111.486 275.48L113.681 274.095L114.605 273.171L116.454 269.938L116.569 269.015L115.529 268.784L114.605 268.322L115.067 266.821L114.605 266.244L114.258 263.935L113.796 262.895L113.565 262.434L112.063 262.087L111.948 261.51V260.817L112.063 260.586L112.179 260.471L112.294 260.355V260.009L112.179 259.663L111.717 259.547L111.601 259.316V256.661L111.717 255.391L112.063 254.236L112.294 253.89L113.103 253.313L113.565 252.966L113.796 252.62L114.143 251.812L114.374 251.465L116.8 249.618L117.955 248.463L118.88 245.577L120.035 245.115L127.544 245.808L128.815 245.577L131.126 244.538L132.512 244.422L132.974 244.538L134.245 244.884L134.592 245.231L135.169 245.577L135.747 245.231L136.325 244.769L136.902 244.538L138.057 244.191L140.368 243.037L141.639 243.152L142.563 243.96L143.025 245.115L143.603 246.154L144.758 246.616L145.451 246.731L145.682 247.078L145.913 247.54L146.376 248.001L146.838 248.232L148.571 248.579L148.224 248.001L149.726 248.232L151.343 248.81L152.961 249.156L154.578 248.579L156.542 246.154L156.889 245.923L157.004 245.346L157.813 243.383H157.929H158.968L159.199 243.499L159.546 243.152L159.661 243.037L160.008 242.46L160.124 241.998L160.008 241.305V240.728L160.239 240.497L160.47 240.381L161.163 239.342L161.279 238.419L161.51 237.841L161.625 237.264L161.51 236.225L160.932 234.147L160.817 233.223L161.163 232.415L160.586 231.953L160.124 231.26L159.777 230.337L159.661 229.297L159.315 228.72L157.466 228.143L156.889 227.797L155.965 226.411L155.156 224.333L154.925 222.139L155.618 220.407L156.773 221.331L158.044 221.562L159.315 221.331L160.586 220.869L160.124 220.292L159.893 219.715V219.137L160.124 218.56L160.47 218.329L161.163 218.214L161.741 217.983L161.972 217.405L162.203 217.059L163.589 216.366L164.052 216.02L166.478 212.787L168.904 210.247L169.481 209.785L171.33 208.977L171.908 208.4L172.601 207.245L173.987 203.32L175.605 200.202L176.067 198.47L176.76 198.124L177.569 197.893L178.146 197.547L178.839 195.122V194.545L178.724 193.852V193.159L178.955 192.467L179.417 192.236L180.688 192.351L181.15 192.005L183.114 190.504L183.576 189.696L182.536 188.888V188.195L183.576 187.502L186.811 187.156L187.504 186.001L187.851 185.539L188.775 185.308H190.508L190.97 185.424L191.894 185.655H192.356L192.703 185.424L192.934 185.077L193.28 184.731L193.974 184.616L196.284 185.655L197.555 186.001L198.133 185.308L197.902 183.692L198.248 183.23H199.519L200.212 183.346L200.79 183.692L201.368 184.269L201.945 184.847L202.292 185.424L202.754 186.694L203.1 187.271L203.678 187.733H204.14L204.602 187.502H205.296L205.989 187.618L207.491 188.426L209.57 190.042L212.92 193.506L217.426 195.353L219.275 196.623L220.545 198.701L220.892 201.819L220.545 203.435L219.506 206.437L219.159 208.515L218.119 210.478L217.426 213.364L215.809 216.482L215.462 218.329L214.884 219.83L214.769 220.523L215 221.446L215.347 221.562L215.809 221.446L216.386 221.562L218.466 223.294L219.621 223.756L220.661 223.178L221.701 222.37L228.401 220.061L230.365 220.176L231.983 221.331L233.6 223.409L233.138 223.871L233.369 224.679L233.485 226.18V227.797L233.254 229.067L232.445 230.337L230.365 231.607L229.903 232.877L230.019 233.569L230.481 235.07L230.596 235.879L230.481 236.571L229.903 238.765L229.672 240.843L229.557 241.536L229.326 242.113L228.632 243.037L228.401 243.383L228.17 246.385L228.979 251.927L228.401 254.698L227.824 256.199L227.708 257.123L228.17 259.778L228.286 262.665L228.17 264.05L227.824 264.858V266.821L225.744 270.285L225.975 271.901L225.629 272.478L225.282 273.517L224.82 276.288L224.704 280.445L224.82 281.253L225.167 281.946L226.091 283.447L226.322 284.255V287.026L226.437 288.527L226.9 289.797L230.019 294.877L230.596 296.263L230.943 299.38L231.405 300.765L231.983 302.035L232.676 303.19L234.524 305.153L236.835 306.423L239.377 307H242.034L244.691 306.538L246.886 305.615L262.829 293.722L264.215 292.106L266.064 291.067L266.526 290.49L267.335 289.335L267.912 288.758L270.107 287.257L275.653 284.948L278.079 284.37L281.891 285.063L283.74 284.14L291.943 282.985L292.405 282.292L292.751 280.907L295.062 277.328L297.603 272.017L299.221 269.823L301.416 268.437L303.958 267.976L305.344 267.514L306.615 266.013L310.543 263.588L314.471 263.242L315.626 262.434L316.204 261.51L317.128 259.547L317.937 258.508L320.016 256.892L320.478 256.776L321.634 257.238L322.211 256.892L324.868 254.005L325.793 253.313L326.948 252.966L328.334 252.851L329.605 252.966L330.529 253.543L331.454 253.89L334.919 252.042L337.346 251.927L343.931 254.352L347.743 255.391H350.169L352.133 255.622L351.787 257.354L351.671 257.931V260.817L351.325 261.856L350.4 262.895L349.476 263.704L348.667 264.05L346.588 264.281L345.433 264.743L344.277 265.782L343.584 267.167L343.815 268.553L344.739 269.13L347.05 268.437L348.205 268.553L348.667 268.899L349.476 269.938L349.823 270.169H350.4L351.325 269.477L351.902 269.246L353.173 269.361L353.982 269.592L354.79 269.361L356.87 267.398L358.025 267.052L360.336 266.706L363.455 265.205L364.61 264.974L368.77 263.473L374.893 262.203L376.279 261.625L377.319 260.471L377.434 258.162L378.358 257.238H379.86L381.478 257.7L382.864 257.469L383.557 255.622L383.904 256.545L384.597 256.083H385.175L385.752 256.43L386.561 257.815L387.139 258.046H387.716L389.334 258.393L390.258 258.162L391.298 258.046L392.453 258.508L394.417 259.085L394.879 259.201H395.341L400.887 258.854L402.504 257.931L409.551 262.203L411.053 263.935L413.595 268.206L414.981 269.015L416.368 268.668L416.945 267.514L417.407 266.359L418.447 265.782L419.718 265.551L424.801 263.588L425.263 262.78L425.379 260.24L426.072 259.085L427.343 258.508L430 257.584L428.845 256.776ZM176.875 3.46371L177.8 4.38737L179.417 6.58104L180.341 7.5047L181.497 7.73561L181.381 6.4656L180.688 4.73374L179.879 3.46371L178.608 2.30914L177.106 1.61639L176.182 1.84732L176.875 3.46371ZM181.959 86.0154L179.995 85.9L173.294 83.7063H172.485L172.37 84.8608L172.832 86.0154L173.525 87.0545L175.373 88.3246L175.951 89.0173L177.569 91.6728L177.915 91.9037L180.688 89.5946L182.305 88.7864L184.154 88.44L184.731 87.8627L184.847 86.5927L184.385 85.3227L183.692 85.2072L181.959 86.0154Z" fill="#B7A088"/>
<path d="M165.987 45.9127L166.013 45.9515L166.052 45.9781L166.673 46.4024L166.739 46.6055L166.08 49.0832L165.674 49.6029L165.015 50.0534L164.995 50.0675L164.977 50.0853L164.401 50.6758L164.353 50.7247L164.337 50.7912L164.116 51.6983L163.592 52.5573L162.275 53.3443L155.863 56.1611L154.678 56.3819L154.302 56.2856L153.063 55.5928L153.029 55.5739L152.991 55.5661L152.415 55.448L152.369 55.4386L152.322 55.4465L151.631 55.5646L151.597 55.5704L151.566 55.585L150.088 56.2839L140.82 58.7466L138.602 58.5193L137.621 58.0728L136.662 57.417L136.27 56.5129L136.786 55.1367L137.713 54.3975L141.676 53.9333L141.707 53.9297L141.737 53.9183L153.376 49.4301L153.405 49.4192L153.429 49.4018L155.936 47.6503L156.594 47.4255L156.65 47.4063L156.692 47.3635L156.807 47.2455L156.848 47.2037L156.866 47.1482L157.078 46.495L157.117 46.4558L157.599 46.2579H157.98L160.254 46.8406L160.284 46.8484H160.316H161.007H161.1L161.17 46.7885L161.846 46.2106L162.346 45.9035H163.046L163.786 46.1203L164.036 46.2742L161.309 48.5318L161.574 48.951L162.803 48.3783L163.914 48.2644L163.942 48.2615L163.969 48.2523L164.661 48.0161L164.771 47.9786L164.813 47.8704L165.043 47.2799L165.057 47.2444L165.06 47.2064L165.175 45.5528L165.176 45.5441V45.5354V45.4347L165.258 44.8452L165.987 45.9127Z" fill="#CFEAF3" stroke="#91D4EA" stroke-width="0.5"/>
<path d="M80 163C76.76 163 74 165.594 74 168.639C74 169.767 74.36 170.782 74.96 171.684L79.52 177.662C79.64 177.887 79.88 178 80 178C80.12 178 80.36 177.887 80.48 177.662L85.04 171.684C85.64 170.782 86 169.767 86 168.639C86 165.481 83.36 163 80 163Z" fill="#E83D3D"/>
<path d="M83 168.5C83 169.875 81.875 171 80.5 171C79.125 171 78 169.875 78 168.5C78 167.125 79.125 166 80.5 166C81.875 166 83 167.125 83 168.5Z" fill="white"/>
<path d="M65.3008 155.927V157H57.7676V155.927H65.3008ZM57.9795 155.927V159.447H56.6738L56.667 155.927H57.9795ZM66.4492 155.927L66.4355 159.44H65.1299V155.927H66.4492ZM64.0088 147.047V148.127H59.6475V147.047H64.0088ZM65.1436 147.047V157H63.8311V147.047H65.1436ZM59.1963 147.047H60.5156L60.3105 151.053C60.2832 151.654 60.2262 152.21 60.1396 152.721C60.0531 153.227 59.946 153.689 59.8184 154.108C59.6908 154.528 59.5449 154.904 59.3809 155.236C59.2168 155.564 59.0413 155.849 58.8545 156.091C58.6676 156.328 58.4717 156.524 58.2666 156.679C58.0661 156.829 57.8633 156.936 57.6582 157H57.0566V155.927H57.4805C57.599 155.799 57.7334 155.615 57.8838 155.373C58.0387 155.132 58.1914 154.819 58.3418 154.437C58.4967 154.049 58.6312 153.577 58.7451 153.021C58.8636 152.465 58.9434 151.809 58.9844 151.053L59.1963 147.047ZM69.8877 156.234L71.9453 149.604H73.2988L70.332 158.142C70.2637 158.324 70.1725 158.52 70.0586 158.729C69.9492 158.944 69.8079 159.146 69.6348 159.338C69.4616 159.529 69.252 159.684 69.0059 159.803C68.7643 159.926 68.4749 159.987 68.1377 159.987C68.0374 159.987 67.9098 159.974 67.7549 159.946C67.5999 159.919 67.4906 159.896 67.4268 159.878L67.4199 158.853C67.4564 158.857 67.5133 158.862 67.5908 158.866C67.6729 158.875 67.7298 158.88 67.7617 158.88C68.0488 158.88 68.2926 158.841 68.4932 158.764C68.6937 158.691 68.8623 158.565 68.999 158.388C69.1403 158.215 69.2611 157.975 69.3613 157.67L69.8877 156.234ZM68.377 149.604L70.2979 155.346L70.626 156.679L69.7168 157.144L66.9961 149.604H68.377ZM74.5498 149.604H75.8145V155.961H78.5215V149.604H79.793V155.961H82.4932V149.604H83.7578V157H74.5498V149.604ZM90.1357 155.735V151.928C90.1357 151.636 90.0765 151.383 89.958 151.169C89.8441 150.95 89.6709 150.782 89.4385 150.663C89.2061 150.545 88.9189 150.485 88.5771 150.485C88.2581 150.485 87.9779 150.54 87.7363 150.649C87.4993 150.759 87.3125 150.902 87.1758 151.08C87.0436 151.258 86.9775 151.449 86.9775 151.654H85.7129C85.7129 151.39 85.7812 151.128 85.918 150.868C86.0547 150.608 86.2507 150.374 86.5059 150.164C86.7656 149.95 87.0755 149.781 87.4355 149.658C87.8001 149.531 88.2057 149.467 88.6523 149.467C89.1901 149.467 89.6641 149.558 90.0742 149.74C90.4889 149.923 90.8125 150.198 91.0449 150.567C91.2819 150.932 91.4004 151.39 91.4004 151.941V155.387C91.4004 155.633 91.4209 155.895 91.4619 156.173C91.5075 156.451 91.5736 156.69 91.6602 156.891V157H90.3408C90.277 156.854 90.2269 156.66 90.1904 156.419C90.154 156.173 90.1357 155.945 90.1357 155.735ZM90.3545 152.516L90.3682 153.404H89.0898C88.7298 153.404 88.4085 153.434 88.126 153.493C87.8434 153.548 87.6064 153.632 87.415 153.746C87.2236 153.86 87.0778 154.004 86.9775 154.177C86.8773 154.345 86.8271 154.544 86.8271 154.771C86.8271 155.004 86.8796 155.216 86.9844 155.407C87.0892 155.599 87.2464 155.751 87.4561 155.865C87.6702 155.975 87.9323 156.029 88.2422 156.029C88.6296 156.029 88.9714 155.947 89.2676 155.783C89.5638 155.619 89.7985 155.419 89.9717 155.182C90.1494 154.945 90.2451 154.715 90.2588 154.491L90.7988 155.1C90.7669 155.291 90.6803 155.503 90.5391 155.735C90.3978 155.968 90.2087 156.191 89.9717 156.405C89.7393 156.615 89.4613 156.79 89.1377 156.932C88.8187 157.068 88.4587 157.137 88.0576 157.137C87.5563 157.137 87.1165 157.039 86.7383 156.843C86.3646 156.647 86.0729 156.385 85.8633 156.057C85.6582 155.724 85.5557 155.353 85.5557 154.942C85.5557 154.546 85.6331 154.197 85.7881 153.896C85.943 153.591 86.1663 153.338 86.458 153.138C86.7497 152.933 87.1006 152.778 87.5107 152.673C87.9209 152.568 88.3789 152.516 88.8848 152.516H90.3545ZM98.4072 152.81V153.835H94.4971V152.81H98.4072ZM94.7637 149.604V157H93.499V149.604H94.7637ZM99.4326 149.604V157H98.1611V149.604H99.4326ZM106.214 146.384H107.253C107.253 146.83 107.185 147.186 107.048 147.45C106.911 147.71 106.724 147.91 106.487 148.052C106.255 148.193 105.991 148.3 105.694 148.373C105.403 148.446 105.1 148.517 104.785 148.585C104.393 148.667 104.029 148.797 103.691 148.975C103.359 149.148 103.072 149.394 102.83 149.713C102.593 150.032 102.418 150.447 102.304 150.957C102.194 151.467 102.165 152.099 102.215 152.851V153.479H101.176V152.851C101.176 152.007 101.256 151.271 101.415 150.643C101.579 150.014 101.809 149.483 102.105 149.05C102.402 148.617 102.753 148.273 103.158 148.018C103.568 147.762 104.02 147.587 104.512 147.491C104.867 147.423 105.173 147.35 105.428 147.272C105.683 147.19 105.877 147.081 106.009 146.944C106.146 146.808 106.214 146.621 106.214 146.384ZM104.717 150.027C105.2 150.027 105.631 150.112 106.009 150.28C106.387 150.449 106.708 150.684 106.973 150.984C107.237 151.285 107.438 151.641 107.574 152.051C107.715 152.456 107.786 152.898 107.786 153.377V153.527C107.786 154.042 107.711 154.521 107.561 154.963C107.415 155.4 107.198 155.783 106.911 156.111C106.629 156.435 106.282 156.688 105.872 156.87C105.466 157.052 105.004 157.144 104.484 157.144C103.965 157.144 103.5 157.052 103.09 156.87C102.684 156.688 102.338 156.435 102.051 156.111C101.764 155.783 101.545 155.4 101.395 154.963C101.249 154.521 101.176 154.042 101.176 153.527V153.377C101.176 153.263 101.196 153.151 101.237 153.042C101.278 152.933 101.328 152.821 101.388 152.707C101.451 152.593 101.508 152.472 101.559 152.345C101.727 151.935 101.957 151.554 102.249 151.203C102.545 150.852 102.898 150.57 103.309 150.355C103.723 150.137 104.193 150.027 104.717 150.027ZM104.471 151.06C104.006 151.06 103.623 151.167 103.322 151.381C103.026 151.595 102.805 151.88 102.659 152.235C102.513 152.586 102.44 152.967 102.44 153.377V153.527C102.44 153.874 102.481 154.202 102.563 154.512C102.646 154.822 102.769 155.097 102.933 155.339C103.101 155.576 103.313 155.763 103.568 155.899C103.828 156.036 104.133 156.104 104.484 156.104C104.835 156.104 105.138 156.036 105.394 155.899C105.649 155.763 105.858 155.576 106.022 155.339C106.187 155.097 106.31 154.822 106.392 154.512C106.474 154.202 106.515 153.874 106.515 153.527V153.377C106.515 153.067 106.474 152.773 106.392 152.495C106.31 152.217 106.184 151.971 106.016 151.757C105.852 151.543 105.64 151.374 105.38 151.251C105.125 151.123 104.822 151.06 104.471 151.06ZM112.291 157.137C111.776 157.137 111.309 157.05 110.89 156.877C110.475 156.699 110.117 156.451 109.816 156.132C109.52 155.813 109.292 155.435 109.133 154.997C108.973 154.56 108.894 154.081 108.894 153.562V153.274C108.894 152.673 108.982 152.137 109.16 151.668C109.338 151.194 109.579 150.793 109.885 150.465C110.19 150.137 110.536 149.888 110.924 149.72C111.311 149.551 111.712 149.467 112.127 149.467C112.656 149.467 113.111 149.558 113.494 149.74C113.882 149.923 114.198 150.178 114.444 150.506C114.69 150.829 114.873 151.212 114.991 151.654C115.11 152.092 115.169 152.57 115.169 153.09V153.657H109.646V152.625H113.904V152.529C113.886 152.201 113.818 151.882 113.699 151.572C113.585 151.262 113.403 151.007 113.152 150.807C112.902 150.606 112.56 150.506 112.127 150.506C111.84 150.506 111.576 150.567 111.334 150.69C111.092 150.809 110.885 150.987 110.712 151.224C110.539 151.461 110.404 151.75 110.309 152.092C110.213 152.434 110.165 152.828 110.165 153.274V153.562C110.165 153.912 110.213 154.243 110.309 154.553C110.409 154.858 110.552 155.127 110.739 155.359C110.931 155.592 111.161 155.774 111.43 155.906C111.703 156.038 112.013 156.104 112.359 156.104C112.806 156.104 113.184 156.013 113.494 155.831C113.804 155.649 114.075 155.405 114.308 155.1L115.073 155.708C114.914 155.95 114.711 156.18 114.465 156.398C114.219 156.617 113.916 156.795 113.556 156.932C113.2 157.068 112.779 157.137 112.291 157.137Z" fill="white"/>
<path d="M155.715 148.203V161H153.307V148.203H155.715ZM159.688 148.203V150.11H149.378V148.203H159.688ZM169.088 150.146L165.441 161H162.883L167.664 148.203H169.299L169.088 150.146ZM172.138 161L168.473 150.146L168.253 148.203H169.897L174.704 161H172.138ZM171.971 156.245V158.152H165.107V156.245H171.971ZM189.932 159.102V161H180.607V159.102H189.932ZM181.266 159.102V164.138H178.972L178.858 159.102H181.266ZM191.734 159.102L191.55 164.146H189.308V159.102H191.734ZM188.429 148.203V150.11H182.4V148.203H188.429ZM190.214 148.203V161H187.805V148.203H190.214ZM182.013 148.203H184.43L184.105 153.406C184.058 154.244 183.971 154.991 183.842 155.647C183.719 156.304 183.566 156.887 183.385 157.396C183.203 157.906 183.001 158.354 182.778 158.741C182.561 159.122 182.33 159.453 182.084 159.734C181.844 160.016 181.595 160.259 181.337 160.464C181.085 160.663 180.836 160.842 180.59 161H179.245V159.102H179.825C179.995 158.955 180.174 158.75 180.361 158.486C180.554 158.223 180.739 157.874 180.915 157.44C181.096 157.007 181.255 156.459 181.389 155.797C181.524 155.135 181.621 154.338 181.679 153.406L182.013 148.203ZM200.827 155.595L196.011 148.203H198.99L201.987 153.477H204.246L203.921 155.595H200.827ZM201.996 155.252L198.806 161H195.791L200.115 153.74L201.996 155.252ZM205.749 148.203V161H203.341V148.203H205.749ZM212.983 148.203L208.219 155.595H205.152L204.826 153.477H207.059L209.994 148.203H212.983ZM210.188 161L207.059 155.252L208.948 153.74L213.202 161H210.188ZM220.423 157.133L225.829 148.203H228.254V161H225.829V152.07L220.423 161H218.006V148.203H220.423V157.133ZM236.759 148.203V161H234.342V148.203H236.759ZM244.379 148.203L239.325 155.604H236.152L235.836 153.477H238.016L241.435 148.203H244.379ZM241.892 161L238.033 155.217L239.659 153.433L244.783 161H241.892ZM251.899 157.133L257.304 148.203H259.73V161H257.304V152.07L251.899 161H249.482V148.203H251.899V157.133ZM273.279 156.79H275.696C275.632 157.646 275.394 158.404 274.984 159.066C274.574 159.723 274.003 160.238 273.27 160.613C272.538 160.988 271.65 161.176 270.607 161.176C269.804 161.176 269.081 161.035 268.436 160.754C267.798 160.467 267.25 160.06 266.793 159.532C266.342 158.999 265.996 158.36 265.756 157.616C265.515 156.866 265.395 156.025 265.395 155.094V154.118C265.395 153.187 265.518 152.346 265.764 151.596C266.011 150.846 266.362 150.207 266.819 149.68C267.282 149.146 267.836 148.736 268.48 148.449C269.131 148.162 269.857 148.019 270.66 148.019C271.703 148.019 272.585 148.212 273.305 148.599C274.026 148.979 274.586 149.504 274.984 150.172C275.383 150.84 275.623 151.607 275.705 152.475H273.288C273.241 151.936 273.124 151.479 272.936 151.104C272.755 150.729 272.479 150.444 272.11 150.251C271.747 150.052 271.263 149.952 270.66 149.952C270.191 149.952 269.778 150.04 269.421 150.216C269.069 150.392 268.776 150.655 268.542 151.007C268.307 151.353 268.132 151.786 268.014 152.308C267.897 152.823 267.839 153.421 267.839 154.101V155.094C267.839 155.744 267.891 156.327 267.997 156.843C268.102 157.358 268.266 157.795 268.489 158.152C268.712 158.51 268.999 158.782 269.35 158.97C269.702 159.157 270.121 159.251 270.607 159.251C271.199 159.251 271.679 159.157 272.049 158.97C272.424 158.782 272.708 158.507 272.901 158.144C273.1 157.78 273.226 157.329 273.279 156.79ZM286.398 148.203V161H283.989V148.203H286.398ZM290.37 148.203V150.11H280.061V148.203H290.37ZM299.771 150.146L296.124 161H293.566L298.347 148.203H299.982L299.771 150.146ZM302.821 161L299.156 150.146L298.936 148.203H300.58L305.387 161H302.821ZM302.654 156.245V158.152H295.79V156.245H302.654ZM318.796 153.485V155.384H312.063V153.485H318.796ZM312.723 148.203V161H310.306V148.203H312.723ZM320.589 148.203V161H318.172V148.203H320.589Z" fill="white"/>
</svg>
