<svg width="37" height="47" viewBox="0 0 37 47" fill="none" xmlns="http://www.w3.org/2000/svg">
<path d="M0.887695 0.64209V46.6421H36.8877V14.0757L23.0557 0.64209H0.887695ZM22.8877 2.64209L34.8877 14.6421H22.8877V2.64209ZM17.6572 18.5835C18.2627 18.5835 18.7939 18.8374 19.1533 19.3022C19.915 20.2944 19.8643 22.3179 18.9971 25.3218C19.9424 26.9272 21.1338 28.3843 22.3525 29.4194C23.6807 29.146 24.8213 29.0093 25.7432 29.0093C28.5322 29.0093 28.8369 30.4038 28.8369 31.0054C28.833 32.9351 26.7705 32.9351 25.9932 32.9351C24.6611 32.9351 23.2744 32.4233 21.8721 31.4077C19.8291 31.8921 17.5479 32.6343 15.5127 33.4819C12.9229 37.9233 11.3447 37.9233 10.8213 37.9233C10.501 37.9233 10.1924 37.8491 9.90723 37.7007C9.00098 37.228 8.8877 36.5366 8.90332 36.1733C8.92285 35.7046 8.97754 34.3022 14.165 32.0483C15.251 30.0796 16.2783 27.6968 16.9619 25.5327C16.1729 24.0522 14.8799 21.146 15.8721 19.521C16.2432 18.9194 16.876 18.5835 17.6572 18.5835ZM17.6299 20.396C17.5674 20.4233 17.5244 20.439 17.5127 20.4429C17.3643 20.5757 17.3213 21.2983 17.7002 22.5015C17.9072 21.1226 17.7471 20.5171 17.6299 20.396ZM18.29 27.6772L18.2471 27.8296L18.1963 27.7476C17.8018 28.8022 17.3486 29.8726 16.8682 30.896L17.0244 30.8296L16.9541 30.9507C17.9775 30.5874 19.0205 30.2593 20.0322 29.9819L19.9814 29.939L20.1416 29.9038C19.4932 29.2397 18.8643 28.4858 18.29 27.6772ZM25.7432 30.8452C25.4658 30.8452 25.1611 30.8647 24.8252 30.8921C25.2314 31.0249 25.6221 31.0952 25.9932 31.0952C26.4893 31.0952 26.751 31.0561 26.8877 31.021C26.7705 30.9507 26.4463 30.8452 25.7432 30.8452ZM11.9541 35.2671C11.4385 35.5991 11.126 35.8686 10.9541 36.0522C11.1533 35.9819 11.4932 35.7593 11.9541 35.2671Z" fill="#B7A088"/>
</svg>