<svg width="60" height="60" viewBox="0 0 60 60" fill="none" xmlns="http://www.w3.org/2000/svg">
<rect width="60" height="60" rx="5" fill="#B7A088"/>
<path d="M30 14C28.8331 14 27.8783 14.8325 27.5921 15.9375H19.8947C18.8512 15.9375 18 16.8079 18 17.875V43.0625C18 44.1296 18.8512 45 19.8947 45H40.1053C41.1488 45 42 44.1296 42 43.0625V17.875C42 16.8079 41.1488 15.9375 40.1053 15.9375H35.0921C35.0798 15.9375 35.065 15.9375 35.0526 15.9375H32.4079C32.1217 14.8325 31.1669 14 30 14ZM30 15.2917C30.7056 15.2917 31.2632 15.8618 31.2632 16.5833C31.2632 16.939 31.5469 17.2292 31.8947 17.2292H34.4211V19.1667H25.5789V17.2292H28.1053C28.4531 17.2292 28.7368 16.939 28.7368 16.5833C28.7368 15.8618 29.2944 15.2917 30 15.2917ZM36.8289 24.9993C36.9868 24.9666 37.1571 24.9817 37.3026 25.0801C37.5938 25.2769 37.6727 25.6906 37.4803 25.9883L34.9539 29.8633C34.9342 29.8936 34.8972 29.9188 34.875 29.944C34.8676 29.9516 34.8824 29.9566 34.875 29.9642C34.8725 29.9667 34.8577 29.9617 34.8553 29.9642C34.801 30.0172 34.7442 30.055 34.6776 30.0853C34.6628 30.0929 34.653 30.1004 34.6382 30.1055C34.5715 30.1307 34.4926 30.1458 34.4211 30.1458C34.3495 30.1458 34.273 30.1307 34.2039 30.1055C34.1842 30.0979 34.1645 30.0752 34.1447 30.0651C34.1201 30.0525 34.0905 30.0626 34.0658 30.0449C34.0485 30.0323 34.0436 29.9995 34.0263 29.9844C34.009 29.9718 33.9819 29.9793 33.9671 29.9642L32.0724 28.0267C31.8257 27.7744 31.8257 27.3506 32.0724 27.0983C32.3191 26.846 32.7336 26.846 32.9803 27.0983L34.3224 28.4909L36.4145 25.2617C36.5107 25.1129 36.6711 25.0321 36.8289 24.9993ZM23.0526 26.9167H29.3684C29.7188 26.9167 30 27.2068 30 27.5625C30 27.9182 29.7188 28.2083 29.3684 28.2083H23.0526C22.7023 28.2083 22.4211 27.9182 22.4211 27.5625C22.4211 27.2068 22.7023 26.9167 23.0526 26.9167ZM36.8289 33.3952C36.9868 33.3624 37.1571 33.3775 37.3026 33.4759C37.5938 33.6727 37.6727 34.0864 37.4803 34.3841L34.9539 38.2591C34.9342 38.2894 34.8972 38.3146 34.875 38.3398C34.8676 38.3474 34.8824 38.3525 34.875 38.36C34.8725 38.3625 34.8577 38.3575 34.8553 38.36C34.801 38.413 34.7442 38.4508 34.6776 38.4811C34.6628 38.4887 34.653 38.4963 34.6382 38.5013C34.5715 38.5265 34.4926 38.5417 34.4211 38.5417C34.3495 38.5417 34.273 38.5265 34.2039 38.5013C34.1842 38.4937 34.1645 38.471 34.1447 38.4609C34.1201 38.4483 34.0905 38.4584 34.0658 38.4408C34.0485 38.4281 34.0436 38.3953 34.0263 38.3802C34.009 38.3676 33.9819 38.3752 33.9671 38.36L32.0724 36.4225C31.8257 36.1702 31.8257 35.7464 32.0724 35.4941C32.3191 35.2419 32.7336 35.2419 32.9803 35.4941L34.3224 36.8867L36.4145 33.6576C36.5107 33.5087 36.6711 33.428 36.8289 33.3952ZM23.0526 35.3125H29.3684C29.7188 35.3125 30 35.6026 30 35.9583C30 36.314 29.7188 36.6042 29.3684 36.6042H23.0526C22.7023 36.6042 22.4211 36.314 22.4211 35.9583C22.4211 35.6026 22.7023 35.3125 23.0526 35.3125Z" fill="white"/>
</svg>
