<svg width="60" height="60" viewBox="0 0 60 60" fill="none" xmlns="http://www.w3.org/2000/svg">
<rect width="60" height="60" rx="5" fill="#B7A088"/>
<path d="M29.5 16C21.5112 16 15 21.6502 15 28.7223C15 32.8288 17.2262 36.4034 20.6493 38.7376C20.6444 38.8743 20.6542 39.098 20.4744 39.7642C20.2553 40.592 19.8071 41.7553 18.9008 43.0678L18.2556 44H19.381C23.2843 44 25.5425 41.4322 25.8922 41.0195C27.0546 41.2955 28.2514 41.4471 29.5 41.4471C37.4888 41.4471 44 35.7969 44 28.7223C44 21.6502 37.4888 16 29.5 16ZM30.1304 35.2177H28.4288V33.3732H30.1304V35.2177ZM32.9674 27.201C32.7162 27.5813 32.2114 28.1555 31.3913 28.9187C30.8249 29.4904 30.4457 29.9354 30.256 30.3182C30.0664 30.6364 30.0048 31.146 30.0048 31.9091H28.4288C28.4288 31.0813 28.5543 30.3828 28.744 29.8732C28.9336 29.3636 29.3744 28.7919 30.0664 28.0909L30.7609 27.3899C30.9505 27.201 31.1401 27.0096 31.2657 26.7536C31.5169 26.3732 31.6425 25.9904 31.6425 25.5455C31.6425 24.9737 31.4553 24.4641 31.1401 24.0813C30.8249 23.6364 30.1945 23.445 29.436 23.445C28.4288 23.445 27.7343 23.8278 27.3575 24.5263C27.1679 24.9091 27.0423 25.5455 26.9783 26.2464H25.4022C25.4662 25.0359 25.7814 24.0192 26.5374 23.2536C27.2295 22.4904 28.2391 22.1101 29.5 22.1101C30.6353 22.1101 31.5809 22.4283 32.2729 23.1268C32.9674 23.7631 33.3466 24.6555 33.3466 25.6722C33.3466 26.3086 33.2186 26.8182 32.9674 27.201Z" fill="white"/>
</svg>
