<svg width="17" height="17" viewBox="0 0 17 17" fill="none" xmlns="http://www.w3.org/2000/svg">
<path d="M6.78006 0C3.03171 0 0 2.96221 0 6.62464C0 10.2871 3.03171 13.2493 6.78006 13.2493C8.11831 13.2493 9.35686 12.8657 10.4069 12.2142L15.305 17L17 15.3438L12.1642 10.6311C13.0335 9.51683 13.5601 8.13619 13.5601 6.62464C13.5601 2.96221 10.5284 0 6.78006 0ZM6.78006 1.55874C9.6513 1.55874 11.9648 3.81922 11.9648 6.62464C11.9648 9.43007 9.6513 11.6905 6.78006 11.6905C3.90882 11.6905 1.59531 9.43007 1.59531 6.62464C1.59531 3.81922 3.90882 1.55874 6.78006 1.55874Z" fill="black"/>
</svg>
