<svg width="60" height="60" viewBox="0 0 60 60" fill="none" xmlns="http://www.w3.org/2000/svg">
<rect width="60" height="60" rx="5" fill="#B7A088"/>
<path d="M16 32.3045C16 40.421 22.4915 47 30.5 47C38.5085 47 45 40.421 45 32.3045C45 24.188 38.5085 17.609 30.5 17.609C27.6039 17.609 24.9123 18.48 22.6491 19.9626V18.9168C22.6491 17.8586 21.7995 17 20.7578 17C19.7137 17 18.8665 17.8586 18.8665 18.9168V23.5391C17.0663 25.9875 16 29.0175 16 32.3045ZM17.2609 32.2745C17.2609 30.1631 17.7583 28.0341 18.704 26.1223L19.8319 26.6963C18.9749 28.4309 18.5217 30.3602 18.5217 32.2745C18.5217 38.9684 23.8952 44.4143 30.5 44.4143C37.1048 44.4143 42.4783 38.9709 42.4783 32.2745C42.4783 25.5807 37.1048 20.1348 30.5 20.1348C27.3897 20.1348 24.4395 21.3527 22.228 23.5042H25.9146C26.2643 23.5042 26.545 23.7912 26.545 24.1431C26.545 24.495 26.2643 24.782 25.9146 24.782H20.1274V18.9168C20.1274 18.5624 20.4081 18.2779 20.7578 18.2779C21.105 18.2779 21.3882 18.5624 21.3882 18.9168V22.5507C23.8263 20.1897 27.0794 18.8569 30.5 18.8569C37.7993 18.8569 43.7391 24.8769 43.7391 32.2745C43.7391 39.6747 37.7993 45.6922 30.5 45.6922C23.2007 45.6922 17.2609 39.6747 17.2609 32.2745ZM29.8696 31.2038V22.0815H31.1304V31.2038C31.5048 31.426 31.7609 31.8328 31.7609 32.3045C31.7609 33.0108 31.1969 33.5824 30.5 33.5824C30.3867 33.5824 30.2808 33.5624 30.1774 33.5349L25.9023 37.8677L25.0108 36.9642L29.2859 32.6314C29.2588 32.5266 29.2391 32.4193 29.2391 32.3045C29.2391 31.8328 29.4928 31.426 29.8696 31.2038Z" fill="white"/>
</svg>
