<svg width="20" height="15" viewBox="0 0 20 15" fill="none" xmlns="http://www.w3.org/2000/svg">
<path d="M10 0C9.93906 0 9.88125 0.00907277 9.825 0.0362903L0.225 4.68145C0.0890624 4.74798 0 4.88558 0 5.03226C0 5.17893 0.0890624 5.31653 0.225 5.38306L1.6 6.04839V11.6855C1.1375 11.8473 0.8 12.2707 0.8 12.7742C0.8 13.2671 1.4125 14.1729 1.675 14.5403L2 15L2.325 14.5403C2.5875 14.1729 3.2 13.2671 3.2 12.7742C3.2 12.2707 2.8625 11.8473 2.4 11.6855V6.43548L3.2 6.82258V5.80645C3.2 4.46371 5.19688 4.19153 6.05 4.07661C7.33594 3.90423 8.90781 3.87097 10 3.87097C11.0922 3.87097 12.6641 3.90423 13.95 4.07661C14.8031 4.19153 16.8 4.46371 16.8 5.80645V6.82258L19.775 5.38306C19.9109 5.31804 20 5.17893 20 5.03226C20 4.88558 19.9109 4.74798 19.775 4.68145L10.175 0.0362903C10.1188 0.00907277 10.0609 0 10 0ZM10 4.64516C7.75938 4.64516 4 4.79637 4 5.80645V7.60887C4.83125 7.26562 6.52813 6.96774 10 6.96774C13.4719 6.96774 15.1687 7.26562 16 7.60887V5.80645C16 4.79637 12.2406 4.64516 10 4.64516ZM10 7.74194C5.84375 7.74194 4.11563 8.21522 4 8.51613C4.00625 9.52319 7.76094 9.67742 10 9.67742C12.1922 9.67742 15.8297 9.52923 15.9875 8.57661C15.9922 8.55393 16 8.53881 16 8.51613C15.8922 8.21976 14.1656 7.74194 10 7.74194Z" fill="black"/>
</svg>
