<svg width="18" height="18" viewBox="0 0 18 18" fill="none" xmlns="http://www.w3.org/2000/svg">
<path d="M9 0C4.03748 0 0 4.03748 0 9C0 13.9625 4.03748 18 9 18C13.9629 18 18 13.9625 18 9C18 4.03748 13.9629 0 9 0ZM12.9025 10.7746C13.7778 11.5517 13.9598 11.8291 13.9895 11.8765C14.3523 12.4517 13.5873 12.5217 13.5873 12.5217H11.9751C11.9751 12.5217 11.5826 12.526 11.2473 12.3038C10.7006 11.9457 10.1281 11.2516 9.72587 11.3721C9.38817 11.473 9.3913 11.9293 9.3913 12.3194C9.3913 12.4591 9.27117 12.5217 9 12.5217C8.72883 12.5217 8.61613 12.5217 8.496 12.5217C7.61283 12.5217 6.65452 12.2243 5.69857 11.2253C4.34622 9.81313 3.16017 6.96835 3.16017 6.96835C3.16017 6.96835 3.09013 6.82513 3.16643 6.73787C3.25291 6.64004 3.48809 6.65257 3.48809 6.65257L5.05135 6.65217C5.05135 6.65217 5.19848 6.67996 5.30413 6.7543C5.39139 6.81535 5.43991 6.93196 5.43991 6.93196C5.43991 6.93196 5.70248 7.79909 6.03704 8.352C6.69052 9.43122 6.99457 9.45861 7.21643 9.34239C7.54043 9.17413 7.43478 8.02683 7.43478 8.02683C7.43478 8.02683 7.44926 7.53417 7.28022 7.31465C7.14991 7.14483 6.90065 7.05443 6.79187 7.04035C6.70383 7.029 6.85096 6.87483 7.03839 6.78678C7.28883 6.67526 7.62965 6.6467 8.21739 6.65217C8.67483 6.65648 8.8067 6.68387 8.98513 6.72496C9.52474 6.84939 9.3913 7.1777 9.3913 8.33048C9.3913 8.69987 9.34044 9.21913 9.61904 9.3913C9.73917 9.46565 10.1508 9.55643 10.8833 8.36687C11.2312 7.80261 11.5079 6.86661 11.5079 6.86661C11.5079 6.86661 11.565 6.7637 11.6538 6.71283C11.7446 6.66078 11.7419 6.66196 11.8663 6.66196C11.9907 6.66196 13.2386 6.65217 13.5125 6.65217C13.786 6.65217 14.0427 6.64904 14.087 6.80948C14.1503 7.03996 13.885 7.82961 13.2128 8.68656C12.1081 10.0929 11.9857 9.96143 12.9025 10.7746Z" fill="#969696"/>
</svg>
