<svg width="18" height="18" viewBox="0 0 18 18" fill="none" xmlns="http://www.w3.org/2000/svg">
<path d="M9 0C4.03709 0 0 4.03709 0 9C0 13.9629 4.03709 18 9 18C13.9629 18 18 13.9629 18 9C18 4.03709 13.9629 0 9 0ZM13.3971 7.24852C13.401 7.34087 13.4033 7.43478 13.4033 7.52909C13.4033 10.3927 11.2226 13.6957 7.23561 13.6957C6.01161 13.6957 4.87174 13.3368 3.91304 12.7217C4.08248 12.742 4.25426 12.7518 4.42996 12.7518C5.44578 12.7518 6.38061 12.4059 7.12174 11.8244C6.17322 11.8072 5.37339 11.1792 5.09674 10.3191C5.22939 10.3445 5.36517 10.3582 5.50526 10.3582C5.70287 10.3582 5.89461 10.332 6.07578 10.2819C5.085 10.082 4.338 9.207 4.338 8.15635C4.338 8.14696 4.338 8.13796 4.338 8.12896C4.6303 8.29135 4.96409 8.38917 5.31978 8.40052C4.73752 8.01117 4.35561 7.3483 4.35561 6.59622C4.35561 6.19904 4.46204 5.82691 4.6487 5.50604C5.71813 6.8173 7.31543 7.68013 9.11661 7.77091C9.07943 7.61204 9.05987 7.44691 9.05987 7.27709C9.05987 6.08009 10.0303 5.10965 11.2277 5.10965C11.851 5.10965 12.4141 5.37261 12.8093 5.79404C13.3028 5.697 13.7673 5.51661 14.186 5.26852C14.0243 5.77409 13.6804 6.19904 13.2323 6.46748C13.6714 6.41426 14.0885 6.29844 14.4779 6.12587C14.1875 6.56061 13.8201 6.94291 13.3971 7.24852Z" fill="white"/>
</svg>
