<svg width="38" height="32" viewBox="0 0 38 32" fill="none" xmlns="http://www.w3.org/2000/svg">
<path d="M28.6284 5.76V6.4H29.527C30.5541 6.4 31.4527 6.656 31.8378 7.168C32.223 7.68 32.4797 8.704 32.4797 10.24V27.008L32.0946 26.624L30.5541 23.552L30.2973 21.632C30.2973 21.632 29.9122 17.792 28.1149 15.872C28.1149 17.024 27.7297 17.536 27.7297 17.536C27.7297 16.256 26.3176 13.056 24.3919 11.392C24.777 12.416 24.777 14.208 24.777 14.208C24.777 14.208 23.4932 10.752 20.9257 8.576C21.3108 9.6 21.0541 10.624 21.0541 10.624C21.0541 10.624 19.5135 6.016 13.6081 4.096C14.25 4.864 14.1216 5.632 14.1216 5.632C14.1216 5.632 9.11486 0.256 0 0C4.10811 2.816 10.6554 9.472 10.6554 9.472L9.11486 9.344C9.11486 9.344 11.9392 11.648 13.3514 12.416C12.5811 12.288 12.1959 12.416 12.1959 12.416C12.1959 12.416 12.7095 12.928 13.6081 13.696V27.136C13.6081 28.544 13.4797 29.568 13.223 29.952C12.7095 30.592 11.9392 30.976 10.7838 30.976H9.75676V31.616H19.2568V30.976H18.2297C17.2027 30.976 16.4324 30.72 15.9189 30.208C15.5338 29.824 15.4054 28.8 15.4054 27.264V15.36C18.3581 17.92 22.4662 21.76 26.3176 23.424C26.8311 23.68 27.2162 23.808 27.7297 23.936C26.8311 21.504 17.0743 10.88 17.0743 10.88C19.2568 12.032 28.8851 22.784 34.1487 32V10.24C34.1487 8.832 34.277 7.808 34.5338 7.424C35.0473 6.784 35.8176 6.4 36.973 6.4H38V5.76H28.6284Z" fill="white"/>
</svg>
