<svg width="18" height="18" viewBox="0 0 18 18" fill="none" xmlns="http://www.w3.org/2000/svg">
<path d="M9 0C4.03748 0 0 4.03709 0 9C0 13.9629 4.03748 18 9 18C13.9629 18 18 13.9629 18 9C18 4.03709 13.9629 0 9 0ZM11.7391 5.47826H10.4517C9.69339 5.47826 9.3913 5.6563 9.3913 6.18496V7.43478H11.7391L11.3478 9.3913H9.3913V14.4783H7.04348V9.3913H5.86957V7.43478H7.04348V6.3493C7.04348 4.69604 7.70322 3.52174 9.61865 3.52174C10.6447 3.52174 11.7391 3.91304 11.7391 3.91304V5.47826Z" fill="white"/>
</svg>
